:SAMPLES-PER-SECOND 30
:FULLY-SPECIFIED
:DEGREES
151
root  24.4953 39.7039 -5.416 -9.6511 62.3085 -4.91081
RightUpLeg  3.64879 -12.8664 -2.38154
RightLeg  17.8697 -5.6539 1.6709
RightFoot  -12.4284 -0.106552 -2.32988
RightToes  0.00048216 0.542163 -0.142577
Spine  15.7943 -0.734436 18.7795
Spine1  8.83938 2.23997 -1.81811
HEad  8.2233 -16.4755 0.331825
LeftShoulder1  8.56504 -13.1654 -44.7664
LeftArm  -18.627 31.0212 -16.5025
LeftForeArm  98.9952 -78.2596 -113.852
LeftHand  -0.25398 0.0180481 5.50724
RightShoulder  5.10549 9.3139 33.8851
RightArm  -2.07347 -15.0477 27.3419
RightForeArm  35.3789 77.863 88.547
RightHand  0.619103 -15.5582 -8.02628
LeftUpLeg  -20.6888 18.577 1.08334
LeftLeg  23.919 4.32908 2.31042
LeftFoot  2.14406 0.0784973 -0.770631
LeftToes  1.06243e-005 4.65856e-005 -8.18505e-006
152
root  26.1409 39.5515 -5.07024 -7.42517 63.425 -3.90548
RightUpLeg  5.37925 -15.172 -4.93087
RightLeg  17.8642 -4.09915 2.71708
RightFoot  -14.2277 -0.153023 -2.10673
RightToes  0.00048216 0.542163 -0.142577
Spine  14.1609 -1.74351 19.8256
Spine1  8.85111 1.29263 -3.39314
HEad  8.42265 -16.5728 0.821339
LeftShoulder1  8.49292 -13.1161 -44.5098
LeftArm  -19.1978 31.5009 -16.4387
LeftForeArm  99.3018 -78.1681 -114.623
LeftHand  -0.25398 0.0180481 5.50724
RightShoulder  5.16955 9.49894 33.8111
RightArm  -1.20799 -14.1207 27.6288
RightForeArm  33.0805 77.8363 86.6941
RightHand  0.648329 -15.4149 -8.45467
LeftUpLeg  -19.5403 14.1577 0.307095
LeftLeg  8.56389 9.64275 -0.14158
LeftFoot  2.62263 0.168481 -1.49721
LeftToes  1.06243e-005 4.65856e-005 -8.18505e-006
153
root  27.8345 39.1938 -4.72834 -6.08835 64.1873 -3.36722
RightUpLeg  6.66059 -19.0346 -7.2858
RightLeg  20.1592 -0.912937 2.5626
RightFoot  -16.9883 -0.190786 -1.67512
RightToes  0.00048216 0.542163 -0.142577
Spine  12.8741 -2.66123 20.7952
Spine1  8.84336 0.386448 -4.50061
HEad  8.83991 -16.7437 1.31211
LeftShoulder1  8.40132 -13.0479 -44.1966
LeftArm  -19.4474 31.5532 -16.5609
LeftForeArm  98.5843 -78.1805 -114.287
LeftHand  -0.25398 0.0180481 5.50724
RightShoulder  5.22545 9.63102 33.8365
RightArm  -0.416199 -13.3004 27.5802
RightForeArm  30.0396 77.7784 85.0727
RightHand  0.732075 -15.1738 -9.60054
LeftUpLeg  -18.1524 2.68769 3.05057
LeftLeg  -0.45132 22.1641 -4.46146
LeftFoot  4.12757 0.164734 -1.39897
LeftToes  1.06243e-005 4.65856e-005 -8.18505e-006
154
root  29.3711 38.8665 -4.13158 -4.4889 61.3287 -0.722148
RightUpLeg  7.99247 -17.3518 -8.74577
RightLeg  23.4063 1.78991 0.732917
RightFoot  -19.4104 0.0382119 2.29112
RightToes  0.00048216 0.542163 -0.142577
Spine  14.5121 -1.8751 18.3467
Spine1  9.49917 1.22288 -3.91182
HEad  9.19163 -16.9291 1.87235
LeftShoulder1  8.36443 -13.0246 -44.0583
LeftArm  -19.2776 31.0201 -16.5973
LeftForeArm  96.7185 -78.3097 -112.669
LeftHand  -0.25398 0.0180481 5.50724
RightShoulder  5.26388 9.68809 33.9549
RightArm  0.0793395 -12.4068 27.1943
RightForeArm  27.0177 77.7129 83.7427
RightHand  0.822044 -14.8222 -10.9744
LeftUpLeg  -17.5632 4.63717 2.04761
LeftLeg  1.12709 22.155 -4.69586
LeftFoot  6.55847 -0.163955 0.722795
LeftToes  1.06243e-005 4.65856e-005 -8.18505e-006
155
root  30.8124 38.5245 -3.48004 -3.92555 57.8041 1.93634
RightUpLeg  7.38126 -8.0359 -8.78933
RightLeg  30.7295 -1.75039 -1.44151
RightFoot  -18.9217 0.406531 8.56964
RightToes  0.00048216 0.542163 -0.142577
Spine  17.5454 -0.495371 14.2527
Spine1  10.428 2.12383 -1.58954
HEad  8.98788 -17.2402 2.53908
LeftShoulder1  8.51913 -13.1896 -44.4467
LeftArm  -18.8495 29.5778 -16.4434
LeftForeArm  92.232 -78.6202 -108.326
LeftHand  -0.25398 0.0180481 5.50724
RightShoulder  5.23263 9.65016 33.833
RightArm  -0.105294 -11.2843 26.9124
RightForeArm  24.4852 77.6522 82.3064
RightHand  0.878537 -14.76 -11.7097
LeftUpLeg  -17.6137 13.7529 -1.00175
LeftLeg  8.92733 13.7495 -2.29434
LeftFoot  8.60603 -0.979386 5.29804
LeftToes  1.06243e-005 4.65856e-005 -8.18505e-006
156
root  32.2855 38.2051 -3.04309 -3.7531 57.8113 4.30931
RightUpLeg  4.31656 -4.92038 -10.3634
RightLeg  43.273 -3.7438 -4.11806
RightFoot  -11.6232 -0.00472715 10.7177
RightToes  0.00048216 0.542163 -0.142577
Spine  20.3149 -0.658035 10.9853
Spine1  11.0259 1.01762 1.17749
HEad  8.23611 -17.7287 3.15594
LeftShoulder1  8.87867 -13.5721 -45.3219
LeftArm  -18.245 26.9608 -16.2329
LeftForeArm  81.9502 -79.0625 -98.1599
LeftHand  -0.25398 0.0180481 5.50724
RightShoulder  5.12281 9.54115 33.3268
RightArm  -1.05211 -9.91964 27.0233
RightForeArm  21.7252 77.5652 79.9048
RightHand  0.896193 -14.693 -11.9991
LeftUpLeg  -18.3282 24.0947 -6.12521
LeftLeg  16.3751 1.50745 0.548738
LeftFoot  7.56497 -1.56172 9.1139
LeftToes  1.06243e-005 4.65856e-005 -8.18505e-006
